<svg data-v-423bf9ae="" xmlns="http://www.w3.org/2000/svg" viewBox="0 0 65.26859723970406 60" class="font"><!----><!----><defs data-v-423bf9ae=""><linearGradient data-v-423bf9ae="" gradientTransform="rotate(25)" id="eb0c6ac2-48b5-4235-9eb2-9e3c94b9b640" x1="0%" y1="0%" x2="100%" y2="0%"><stop data-v-423bf9ae="" offset="0%" style="stop-color: rgb(30, 11, 54); stop-opacity: 1;"></stop><stop data-v-423bf9ae="" offset="100%" style="stop-color: rgb(202, 55, 130); stop-opacity: 1;"></stop></linearGradient></defs><g data-v-423bf9ae="" id="7b1fac27-6dad-47df-8158-f03ffa89ea7a" fill="url(#eb0c6ac2-48b5-4235-9eb2-9e3c94b9b640)" transform="matrix(6.198346912026306,0,0,6.198346912026306,2.9752068175668,-15.433883631638963)"><path d="M1.33 4.17L1.33 9.16C1.33 11.00 1.27 11.90-0.25 11.94L-0.48 11.94L-0.48 12.17L3.46 12.17L3.46 11.94L3.19 11.94C1.67 11.94 1.61 11.17 1.61 9.17L1.61 4.62L5.75 11.14C6.34 12.08 6.80 12.17 7.48 12.17L8.30 12.17L8.30 5.78C8.30 3.93 8.36 2.76 9.88 2.72L10.05 2.72L10.05 2.49L5.98 2.49L5.98 2.72L6.44 2.72C7.97 2.72 8.02 3.77 8.02 5.77L8.02 9.21L7.97 9.21L4.42 3.51C3.84 2.58 3.37 2.49 2.70 2.49L-0.17 2.49L-0.17 2.72C0.52 2.72 0.88 3.46 1.09 3.79Z"></path></g><!----><!----></svg>